<svg width="372" height="512" viewBox="0 0 372 512" fill="none" xmlns="http://www.w3.org/2000/svg">
<path d="M112.458 475.472L105.493 461H59.493L49 475.472V501.61C49 504.114 51.972 505.429 53.825 503.744L78.789 481.049C79.889 480.049 81.569 480.049 82.669 481.049L107.633 503.744C109.486 505.429 112.458 504.114 112.458 501.61V475.472Z" fill="#8594FF"/>
<path d="M48.5056 391.795H111.964V475.479H48.5056V391.795Z" fill="#8594FF"/>
<path d="M325.102 7.50009H316.764L292.502 20.0003L272.536 7.50009H26.4473C16.2282 7.50009 7.94507 15.7842 7.94507 26.0023V431.464C7.94507 441.682 16.2292 449.966 26.4473 449.966H272.535L294.649 440.006L316.763 449.966H325.101C346.614 449.966 364.054 432.527 364.054 411.014V46.4526C364.055 24.9393 346.616 7.50009 325.102 7.50009Z" fill="#6777EF"/>
<path d="M287.047 135.238H125.515C121.267 135.238 117.823 131.794 117.823 127.546V76.586C117.823 72.338 121.267 68.8939 125.515 68.8939H287.047C291.295 68.8939 294.739 72.338 294.739 76.586V127.546C294.738 131.794 291.295 135.238 287.047 135.238Z" fill="#8594FF"/>
<path d="M48.5606 8H26.5023C16.2841 8 8 16.2841 8 26.5023V431.964C8 442.182 16.2841 450.466 26.5023 450.466H48.5596V8H48.5606Z" fill="#5763B8"/>
<path d="M325.102 7.50009H296.755C318.268 7.50009 335.708 24.9393 335.708 46.4526V411.014C335.708 432.527 318.268 449.966 296.755 449.966H325.102C346.615 449.966 364.055 432.527 364.055 411.014V46.4526C364.055 24.9393 346.616 7.50009 325.102 7.50009Z" fill="#5763B8"/>
<path d="M272.536 7.50009H316.764V449.966H272.536V7.50009Z" fill="#E2E2E2"/>
<path d="M272.536 449.966L294.087 440.26V19.1833L292.502 20.0003L272.536 7.50009H249.858V69.8669L255.735 102.065L249.858 130.13V449.966H272.536Z" fill="#5763B8"/>
<path d="M294.086 73.4939C292.895 70.7859 290.193 68.8939 287.046 68.8939H249.858V135.237H287.046C290.193 135.237 292.895 133.344 294.086 130.637V73.4939Z" fill="#5763B8"/>
<path d="M272.536 7.50009H316.764V449.966H272.536V7.50009Z" fill="#8594FF"/>
<path d="M325.101 0C310.704 0 41.4685 0 26.4473 0C12.1091 0 0.44397 11.6652 0.44397 26.0024V98.8714C0.44397 103.013 3.80102 106.371 7.94407 106.371C12.0871 106.371 15.4442 103.013 15.4442 98.8714V26.0024C15.4442 19.9363 20.3802 15.0002 26.4473 15.0002H41.0045V442.466H26.4473C20.3802 442.466 15.4442 437.53 15.4442 431.464V133.872C15.4442 129.73 12.0871 126.372 7.94407 126.372C3.80102 126.372 0.44397 129.73 0.44397 133.872V431.464C0.44397 445.802 12.1091 457.466 26.4473 457.466H41.0045V501.616C41.0045 505.723 43.4316 509.45 47.1876 511.113C50.9447 512.774 55.3337 512.064 58.3758 509.3L80.2351 489.428L102.095 509.301C105.14 512.069 109.531 512.772 113.282 511.113C117.038 509.451 119.465 505.724 119.465 501.616V457.465H200.454C204.597 457.465 207.954 454.107 207.954 449.965C207.954 445.823 204.597 442.465 200.454 442.465C193.647 442.465 62.8858 442.465 56.0057 442.465C56.0057 436.442 56.0057 21.3293 56.0057 14.9992H265.036V61.3928H125.514C117.137 61.3928 110.321 68.2079 110.321 76.5851V127.545C110.321 135.921 117.137 142.736 125.514 142.736H265.036V442.466H235.453C231.31 442.466 227.953 445.824 227.953 449.966C227.953 454.108 231.31 457.466 235.453 457.466H325.101C350.716 457.466 371.554 436.628 371.554 411.014V46.4526C371.554 20.8383 350.717 0 325.101 0V0ZM104.463 457.466V491.183L87.2192 475.506C83.2361 471.886 77.231 471.888 73.249 475.507L56.0047 491.183V457.466H104.463ZM125.513 127.737C125.407 127.737 125.321 127.651 125.321 127.546V76.5861C125.321 76.48 125.407 76.394 125.513 76.394H265.035V127.737H125.513ZM280.035 15.0002H309.264V442.466H280.035C280.035 431.872 280.035 28.5174 280.035 15.0002ZM356.554 411.014C356.554 428.357 342.445 442.466 325.101 442.466H324.263V15.0002H325.101C342.445 15.0002 356.554 29.1094 356.554 46.4526V411.014Z" fill="black"/>
</svg>
