<svg width="1024" height="768" viewBox="0 0 1024 768" fill="none" xmlns="http://www.w3.org/2000/svg">
<path fill-rule="evenodd" clip-rule="evenodd" d="M285.204 455.106C289.873 451.924 299.42 440.534 304.422 437.902C315.545 432.049 365.097 420.543 366.708 419.863C369.162 418.828 385.103 415.21 394.391 412.925C416.2 407.557 494.356 372.889 514.956 364C517.586 370.92 539.296 401.468 535.572 404.599C523.31 414.906 501.331 427.74 487.127 435.126C475.639 441.1 463.471 446.044 451.187 450.08C437.24 454.664 427.668 459.578 413.768 464.266C400.093 468.879 416.436 483.306 423.459 486.286C431.336 489.631 443.537 491.328 451.586 494.226C437.415 516.251 425.514 542.982 423.133 569.365C422.56 575.714 417.72 581.535 409.847 579.634C405.785 578.653 368.301 573.661 362.189 572.267C321.386 562.962 248.137 514.233 267 464.266C271.321 466.262 281.187 457.844 285.204 455.106Z" fill="#6366F1"/>
<path fill-rule="evenodd" clip-rule="evenodd" d="M308.031 190C311.079 189.743 318.961 183.654 314.825 180.574C310.653 177.467 307.655 187.88 308.031 190ZM149.245 213.353C150.042 213.212 149.694 208.852 148.44 208.295C144.48 206.537 144.146 213.144 144.049 214.912C143.929 217.143 143.649 223.428 148.464 221.705C151.197 220.727 149.501 215.025 149.245 213.353ZM383 233.723C382.893 237.615 390.756 245.099 393.687 240.61C396.153 236.838 383.202 225.975 383 233.723ZM105 145.944C107.278 151.756 118.545 143.836 118.964 139.573C119.823 130.843 104.882 140.136 105 145.944ZM198.999 171C204.246 170.569 211.151 163.898 216.21 161.406C219.634 159.72 228.951 157.71 229.964 153.881C230.846 150.554 215.038 157.675 213.688 158.308C207.487 161.213 201.896 164.525 198.999 171ZM592.897 125C597.079 121.766 602.163 119.68 607.524 119.817C610.201 119.885 615.786 121.56 615.996 116.93C616.338 109.402 592.694 118.583 588.999 120.06C590.299 121.708 591.599 123.354 592.897 125ZM331.999 418.387C328.931 413.292 323.413 410.346 319.263 406C320.784 413.137 317.355 419.485 314.999 426C320.667 423.462 326.332 420.925 331.999 418.387ZM864.805 527C866.496 521.341 868.189 515.714 870.166 510.142C872.378 503.902 873.478 503.363 868.183 499C863.789 507.305 859.394 515.611 854.999 523.918C858.128 525.248 861.393 526.542 864.805 527ZM409.999 117.365C404.181 110.807 376.913 110.395 380.288 124.869C381.465 129.923 388.169 124.554 392.368 123.376C396.536 122.206 408.338 122.051 409.999 117.365ZM408.999 210.215C408.294 208.541 406.886 202.5 404.796 202.024C402.76 201.56 394.726 207.896 393.216 208.863C385.683 213.691 378.34 218.883 370.999 224C373.81 224 376.362 222.999 379.156 222.978C382.476 222.949 384.857 224.313 388.094 223.535C395.049 221.865 403.121 214.158 408.999 210.215ZM416.536 60.5702C417.189 57.5705 451.281 66.5753 455.378 68.2242C457.611 69.121 469.128 75.1079 466.653 66.0848C465.244 60.9455 451.935 57.0279 447.67 55.6194C436.827 52.0405 425.395 49.4948 413.85 50.0852C411.608 50.199 394.629 51.1788 401.719 58.0034C404.162 60.3537 412.919 59.6129 416.536 60.5702ZM423.999 472.713C430.351 475.838 436.836 478.228 443.475 480.672C446.424 481.757 451.019 484.6 454.272 483.886C456.937 483.3 457.791 479.242 459.191 476.526C464.309 466.588 470.421 458.571 477.999 450.377C474.481 447.811 456.618 459.131 452.198 460.802C447.773 462.475 443.599 464.16 439.268 466.159C435.191 468.041 427.146 469.724 423.999 472.713ZM536.463 388C545.72 383.811 554.494 376.383 562.086 369.732C570.803 362.096 578.618 354.093 584.999 344.211C581.159 344.407 572.681 356.759 572.586 343.311C572.537 336.451 581.938 329.694 584.856 323.331C577.598 319.233 570.945 343.719 562.617 337.784C554.594 332.065 567.253 312.402 569.692 306.198C564.986 303.067 538.174 338.113 534.293 342.597C531.866 345.404 526.126 349.141 524.756 352.415C523.94 354.365 523.823 360.55 524.218 362.343C525.039 366.092 529.198 370.582 531.05 374.073C533.394 378.493 535.435 383.086 536.463 388ZM919.155 514.352C911.15 503.053 919.418 498.125 925.928 488.747C931.134 481.245 935.923 472.976 939.223 464.598C947.476 443.645 954.923 424.165 958.999 402C953.39 404.561 949.883 414.306 947.077 419.441C943.303 426.345 939.984 433.591 935.79 440.28C927.942 452.796 920.237 466.148 910.254 476.997C905.731 481.914 901.902 487.445 896.683 491.875C894.299 493.899 889.738 495.56 887.981 498.091C886.323 500.48 888.178 502.007 887.548 504.861C886.902 507.789 883.94 510.911 882.669 513.73C881 517.433 879.445 521.145 877.582 524.766C875.55 528.715 874.995 530.78 874.447 534.639C873.848 538.859 875.684 539.297 871.999 543.185C878.677 546.13 885.355 549.074 892.032 552.018C894.285 553.013 896.539 554.006 898.793 555C899.268 554.109 899.743 553.219 900.218 552.329C902.053 550.546 903.741 546.151 904.79 543.796C909.178 533.972 914.133 524.109 919.155 514.352ZM274.32 466.919C255.359 516.838 321.988 558.87 363.003 568.166C368.684 569.453 374.228 571.139 379.883 572.521C386.049 574.028 391.524 573.728 397.679 574.359C402.575 574.86 404.909 578.644 409.523 579.686C417.233 581.428 416.762 575.634 417.314 569.425C419.655 543.1 433.09 517.701 447.309 495.735C440.814 493.411 434.378 490.875 427.966 488.331C422.479 486.153 414.078 480.031 408.179 479.707C403.817 479.469 397.169 483.194 392.932 484.829C385.876 487.552 378.799 489.871 371.445 491.728C358.585 494.975 344.275 499.401 330.968 499.736C327.131 499.833 316.607 501.62 313.847 499.249C308.583 494.728 315.889 490.96 320.296 489.346C346.561 479.728 374.448 475.639 400.787 465.778C414.341 460.703 427.755 455.036 441.394 450.036C453.151 445.727 465.465 441.912 476.827 436.611C491.832 429.613 506.901 420.895 519.894 410.624C522.495 408.569 527.944 405.516 529.726 402.538C531.296 399.916 531.1 402.531 530.774 399.352C530.54 397.069 527.746 393.974 526.597 391.817C522.315 383.774 518.445 375.512 515.192 367C494.466 375.89 474.748 387.99 454.327 397.49C433.773 407.053 410.588 413.799 388.599 419.179C379.24 421.469 368.481 422.193 359.898 426.718C356.251 428.64 352.646 430.864 348.74 431.976C347.586 434.189 346.451 434.623 345.332 433.277C344.631 432.49 343.725 432.158 342.613 432.28C340.224 432.684 337.787 433.813 335.553 434.68C324.244 439.064 313.415 444.554 302.679 450.156C297.59 452.809 292.37 455.423 287.5 458.454C284.89 460.079 282.551 461.717 280.415 463.948C277.854 466.623 278.464 468.822 274.32 466.919ZM700.979 170.53C705.771 170.608 710.138 168.013 715.135 168.157C722.992 168.384 729.212 174.476 733.772 180.351C742.796 191.975 740.495 205.998 735.962 219.007C733.793 225.224 730.815 231.192 727.095 236.634C723.801 241.452 717.913 246.009 715.613 251.373C711.822 260.22 719.471 256.458 724.155 254.569C730.043 252.191 735.564 249.236 740.562 245.255C762.839 227.513 779.785 202.852 785.462 174.53C788.231 160.712 788.018 144.558 778.392 133.28C769.592 122.967 754.401 119.598 741.415 121.51C727.378 123.578 714.656 129.524 703.226 137.177C699.906 139.401 696.866 141.829 693.749 144.316C689.659 147.579 687.208 147.664 688.232 152.779C688.992 156.58 691.062 160.52 692.396 164.168C694.894 171.001 693.983 172.769 700.979 170.53ZM716.256 288.331L715.286 289.988C721.97 290.306 728.195 284.41 733.89 281.532C741.288 277.791 747.857 272.688 754.34 267.535C765.772 258.446 777.354 248.203 785.863 236.271C804.94 209.524 822.268 175.613 817.062 141.701C811.452 105.152 779.484 91.0828 745.421 95.9212C730.07 98.1014 716.365 104.955 702.627 111.913C695.702 115.42 689.858 119.971 683.514 124.375C680.222 126.662 677.218 126.959 677.003 130.957C676.841 133.97 682.05 140.784 683.458 143.514C700.707 125.918 719.296 111.361 745.345 110.461C776.335 109.391 794.66 138.775 794.524 166.913C794.391 194.508 782.489 221.052 763.516 240.884C754.894 249.897 746.673 257.129 736.085 263.707C730.807 266.986 726.914 269.93 721.013 272.107C716.839 273.648 717.274 272.836 716.209 276.7C715.304 279.979 716.228 284.926 716.256 288.331ZM547.865 663.241C547.462 668.214 546.451 673.11 545.326 677.96C544.922 679.702 542.647 685.201 543.046 687.159C543.705 690.396 542.828 688.315 545.664 690.003C548.622 691.767 552.066 691.66 555.305 692.195C557.304 692.526 564.63 695.973 565.861 695.429C568.015 694.477 567.947 691.121 570.31 689.791C573.53 687.977 578.275 689.531 581.312 690.95C589.433 694.737 595.012 702.578 602.869 706.871C616.823 714.491 633.381 718.71 648.948 720.451C657.382 721.394 666.012 723.049 674.341 721.073C680.903 719.516 689.432 719.659 692.999 712.618C661.298 703.9 612.912 693.231 600.378 656.851C593.564 663.029 582.177 659.702 573.943 658.849C564.884 657.911 556.789 658.129 548.504 654C547.898 657.246 547.713 659.94 547.865 663.241ZM267.184 437.923C282.107 438.824 296.255 431.762 305.438 419.847C307.699 416.912 310.017 413.917 311.374 410.44C311.669 409.559 311.962 408.677 312.256 407.796C313.681 405.363 313.057 404.215 310.386 404.352C308.881 402.288 305.065 401.594 306.151 397.853C306.968 395.031 309.985 394.985 312.607 394.097C311.301 391.903 310.52 390.802 308.651 388.851C303.794 393.22 294.979 401.796 291.566 391.758C289.926 386.939 292.812 382.333 292.097 377.685C291.803 375.762 289.366 370.851 287.953 369.702C280.43 363.577 269.595 366.112 261.613 369.717C256.112 372.202 254.929 373.368 254.031 379.064C253.12 384.856 252.274 390.646 251.263 396.421C254.564 394.701 255.165 390.985 257.318 388.309C258.124 389.777 258.931 391.247 259.74 392.715C260.876 392.078 261.937 392.111 262.921 392.817C264.514 395.266 263.512 398.898 263.022 401.465C268.334 400.97 270.579 406.896 265.224 409.296C259.677 411.782 257.175 405.004 256.987 400.614C254.917 403.086 252.791 401.763 251.349 403.033C249.907 404.303 249.339 406.95 248.826 409.849C247.983 414.612 245.826 421.484 247.822 426.262C250.785 433.359 260.232 437.052 267.184 437.923ZM699.61 209.975C694.673 216.842 686.254 225.831 684.493 234.127C689.932 230.936 701.431 215.579 704.393 227.812C706.094 234.834 697.372 243.201 695.229 250C703.806 247.178 709.915 238.34 715.267 231.519C722.091 222.822 729.058 211.358 730.8 200.299C732.209 191.35 726.001 183.009 716.777 182.132C712.065 181.684 707.145 182.432 702.593 183.525C700.517 184.022 697.421 184.64 695.568 185.752C693.242 187.149 692.924 190.419 690.732 187.699C687.821 193.186 684.91 198.673 681.999 204.158C684.896 203.107 690.808 198.645 693.974 199.106C698.598 199.781 699.548 206.497 699.61 209.975ZM237.28 75.6444C224.335 76.026 210.804 78.7826 198.549 82.8804C195.506 83.8989 182.667 87.5211 185.371 92.772C187.158 96.2427 196.793 91.3383 199.706 90.5204C212.19 87.0146 225.044 84.7027 237.831 82.5928C240.927 82.0821 251.43 82.1327 251.972 78.0742C252.636 73.122 240.936 75.6388 237.28 75.6444ZM589.593 640.466C582.577 641.323 575.839 641.003 568.816 640.143C562.905 639.42 556.886 637 551.005 637C551.005 643.295 550.578 643.335 557.22 644.682C561.856 645.623 566.558 646.151 571.243 646.807C579.492 647.96 588.649 651.198 596.999 649.534C596.797 648.441 596.157 641.064 595.292 640.334C594.805 639.925 590.301 640.473 589.593 640.466ZM476.19 174.677C478.152 175.927 482.662 180.912 484.999 181C484.165 175.229 477.726 165.181 470.332 168.747C468.52 169.622 464.714 173.976 466.436 175.897C467.355 176.924 473.786 174.684 476.19 174.677ZM407.781 226.017C407.852 225.011 407.925 224.005 407.999 223C405.286 224.595 401.927 225.35 399.999 227.92C402.314 228.946 404.627 229.973 406.943 231C407.222 229.339 407.502 227.678 407.781 226.017ZM621.457 379.235C634.276 383.724 646.028 389.72 655.464 399.897C663.62 408.698 667.453 424.204 669.444 435.74C674.37 464.286 664.864 490.745 658.596 518.053C655.416 531.906 650.669 545.237 646.224 558.732C642.343 570.516 639.015 582.856 633.658 594.062C629.116 603.563 623.313 612.93 619.317 622.787C617.167 628.091 613.682 646.292 605.52 640.576C603.293 646.399 602.752 645.903 605.132 649.948C606.856 652.876 612.701 656.942 615.46 659.326C622.81 665.682 632.12 670.92 640.743 675.37C656.537 683.522 673.467 689.62 689.732 697.051C696.923 700.339 704.721 704.222 703.107 713.629C701.755 721.515 697.193 727.495 690.075 731.004C683.394 734.298 673.837 736.842 666.486 737.875C662.125 738.489 661.125 736.674 657.569 736.046C653.612 735.349 648.994 736.698 644.911 736.663C626.585 736.503 610.54 731.892 595.73 721.265C590.438 717.467 582.648 707.165 575.722 707.166C572.182 707.166 572.929 709.317 569.815 710.579C565.972 712.135 559.35 709.197 555.572 708.507C547.523 707.038 539.338 705.546 533.978 698.613C528.183 691.121 530.243 681.84 532.733 673.52C535.54 664.141 540.263 654.626 542.27 645.105C542.759 642.789 543.209 638.472 542.713 636.116C541.941 632.46 538.25 630.279 538.139 626.32C538.105 625.116 539.828 623.528 540.13 622.285C540.795 619.556 540.692 616.723 540.966 613.945C541.455 608.989 542.585 604.241 543.365 599.343C545.137 588.198 548.632 578.257 552.015 567.518C555.297 557.096 558.421 549.34 564.767 540.316C568.052 535.643 579.042 518.992 573.675 514.2C566.33 528.628 557.741 539.88 546.5 551.366C537.902 560.152 529.496 571.962 518.735 578.219C506.904 585.099 492.446 589.146 479.381 592.784C473.167 594.513 468.011 598.349 461.312 599.059C454.052 599.827 446.663 598.921 439.552 597.302C437.551 596.847 431.778 593.771 429.967 593.967C427.299 594.257 423.461 599.013 420.533 599.886C413.406 602.012 408.539 597.951 403.133 594.198C397.266 590.124 395.491 589.112 388.721 588.621C380.429 588.022 372.365 585.099 364.209 583.309C349.869 580.163 337.68 573.787 324.646 567.113C309.705 559.463 296.925 548.914 285.663 536.452C269.108 518.131 246.052 467.364 273.096 449.589C257.175 447.427 242.594 440.475 240.653 422.455C239.639 413.026 241.548 402.581 243.919 393.492C245.001 389.342 246.291 385.218 247.527 381.111C248.458 379.724 248.951 378.207 249.003 376.557C249.573 374.42 248.75 373.355 246.532 373.365C242.338 368.462 239.185 364.134 238.338 357.172C238.071 354.966 237.832 351.584 239.402 349.708C240.128 348.954 241.005 348.45 242.028 348.197C244.486 348.338 245.18 347.127 244.112 344.566C245.305 340.938 243.535 338.111 248.032 336.597C249.473 336.903 250.908 337.239 252.337 337.602C254.161 338.434 255.347 337.831 255.899 335.8C260.135 334.142 258.181 331.691 263.937 333.824C267.42 335.115 270.734 337.338 273.271 340.046C276.453 338.003 269.216 325.378 268.975 321.35C268.402 311.855 272.328 304.005 277.435 296.206C287.362 281.05 301.218 268.018 314.882 256.292C341.054 233.836 368.549 212.458 398.101 194.567C385.91 186.1 371.667 183.805 357.161 187.74C343.788 191.368 332.948 197.957 320.638 203.72C309.234 209.057 297.129 211.25 293.493 196.685C289.419 180.37 302.417 174.313 314.076 166.998C311.165 164.826 301.581 166.378 297.956 166.635C289.882 167.206 282.16 169.029 274.314 170.641C270.551 171.413 267.094 171.239 263.366 171.996C257.824 173.121 252.037 174.381 246.43 175.984C233.09 179.799 219.849 185.589 208.322 193.391C198.359 200.131 191.447 209.648 183.42 218.413C174.266 228.407 165.494 238.241 151.923 241.899C145.568 243.613 138.113 245.168 133.608 239.492C129.416 234.214 129.182 227.853 129.32 221.4C129.623 207.146 136.509 191.742 144.519 180.094C153.214 167.45 164.86 160.209 175.863 150.032C159.959 151.169 144.589 159.552 129.963 165.347C126.885 166.567 123.778 167.938 120.683 169.066C117.383 170.27 115.197 169.533 112.035 170.084C104.82 171.343 98.6219 174.384 91.6034 169.536C78.3248 160.365 91.6284 141.708 100.771 135.983C113.505 128.01 126.46 121.297 140.489 115.61C132.894 107.372 139.38 95.6156 146.381 89.7715C155.238 82.3764 166.517 78.1388 177.19 74.1802C185.63 71.0492 193.92 68.0431 202.688 66.1589C211.906 64.179 222.684 61.1534 232.038 61.4436C240.809 61.7158 248.587 60.1704 257.471 59.9233C264.863 59.7178 272.272 59.8955 279.663 59.7039C299.549 59.1901 319.508 60.5314 338.943 61.9615C323.545 16.933 424.972 30.8387 446.611 36.7203C466.276 42.066 488.808 48.2669 505.326 60.9507C512.324 66.3228 518.97 72.4307 525.179 78.6983C534.339 87.9456 539.41 100.056 544.255 112.009C556.545 105.989 568.295 99.4284 581.742 96.4431C594.537 93.6037 607.644 89.7548 620.514 87.6096C630.299 85.9781 644.502 84.8715 652.737 91.7806C661.681 99.2854 666.341 110.964 671.68 120.965C697.32 96.6361 725.919 78.8871 762.476 80.0674C798.248 81.2226 821.771 112.114 826.108 145.588C830.885 182.474 814.454 221.016 792.182 249.58C782.195 262.39 771.861 274.762 758.419 284.319C751.753 289.056 744.721 294.246 737.412 297.945C733.767 299.789 729.782 301.455 725.956 302.874C724.229 303.515 722.451 304.157 720.655 304.592C715.527 305.836 716.523 304.175 714.616 308.664C713.069 312.309 713.259 318.58 712.596 322.58C711.839 327.152 711.389 331.787 710.284 336.297C708.368 344.114 706.374 351.739 703.975 359.373C699.433 373.82 693.321 388.381 685.835 401.559C692.184 404.317 701.075 404.595 707.86 405.431C715.203 406.334 722.557 408.234 730.185 410.367C745.469 414.64 759.127 418.248 773.661 424.646C788.75 431.288 802.198 441.206 816.727 449.1C830.087 456.359 843.592 465.451 856 474.165C858.952 476.238 860.78 478.04 863.13 480.666C865.534 483.348 866.299 483.873 869.172 486.197C870.468 487.244 874.235 492.529 875.714 492.723C878.363 493.074 877.956 491.097 880.035 488.337C884.377 482.575 890.433 478.111 894.744 472.203C898.34 467.276 902.091 462.288 905.934 458.051C915.236 447.799 922.943 436.435 929.556 424.145C932.998 417.746 936.622 411.657 940.36 405.618C944.081 399.606 950.696 391.671 958.107 392.026C957.511 388.965 955.618 388.455 958.885 386.583C960.989 385.377 965.085 387.321 966.707 388.545C970.999 391.789 971.19 398.081 970.919 402.808C970.221 414.989 967.673 427.013 964.12 438.531C959.85 452.377 954.498 464.592 948.657 477.807C944.007 488.334 938.233 502.255 926.662 507.059C934.433 518.155 930.701 527.196 925.507 538.976C921.711 547.588 916.697 556.486 909.06 562.185C900.452 568.609 891.115 563.16 882.112 558.914C876.674 556.348 860.045 550.295 863.427 542.402C859.273 541.848 856.66 538.83 852.879 537.902C848.876 536.919 849.564 538.544 845.329 539.154C842.081 539.621 837.224 536.713 834.167 535.672C829.059 533.935 823.967 532.153 818.867 530.397C804.512 525.452 790.399 520.584 775.902 516.623C748.929 509.253 721.623 505.072 694.745 498.491C689.357 497.172 684 495.899 678.39 494.842C677.232 494.624 671.221 494.289 670.491 493.049C669.212 490.876 673.144 478.716 673.481 476.238C675.697 459.97 674.973 442.161 671.852 426.079C670.556 419.393 664.767 410.736 664.817 404.21C664.852 399.832 668.731 395.052 671.009 391.086C676.643 381.281 682.546 370.687 686.72 360.483C693.109 344.873 697.023 327.253 699.846 310.535C701.315 301.819 703.026 292.371 703.426 283.554C703.732 276.833 703.18 269.784 704.156 262.901C700.436 263.254 695.173 265.181 691.823 263.118C687.592 260.515 686.456 253.082 686.996 248.643C672.51 251.172 672.991 237.434 673.888 226.691C647.707 226.691 681.236 187.787 685.425 179.433C687.35 175.592 687.293 179.906 686.443 173.966C686.07 171.355 684.285 168.461 683.275 166.06C681.075 160.819 678.696 155.658 676.155 150.573C670.787 139.833 664.706 129.456 658.069 119.45C652.095 123.613 646.71 128.541 641.721 133.828C644.921 125.458 654.7 115.089 650.517 105.585C646.641 96.775 633.694 97.3859 626.048 98.9966C605.271 103.377 585.345 109.757 565.552 117.144C571.683 120.66 581.07 117.944 587.162 115.256C594.705 111.926 602.817 108.433 610.947 106.669C618.037 105.131 627.349 105.656 625.3 115.206C623.639 122.944 616.071 130.396 611.077 136.182C600.074 148.929 586.277 158.797 572.725 168.657C558.157 179.256 544.12 190.773 529.368 201.064C502.701 219.67 474.028 235.84 446.476 253.207C432.159 262.231 415.936 269.493 400.41 276.181C383.329 283.538 366.953 291.415 349.233 297.226C339.392 300.454 329.638 303.11 319.968 306.783C313.907 309.084 303.352 313.695 299.347 306.862C291.214 292.984 320.647 274.733 328.713 266.248C334.277 271.652 306.838 291.789 308.986 299.657C310.673 305.84 317.2 297.856 320.352 296.171C325.445 293.447 331.477 292.078 336.596 288.97C347.095 282.596 359.543 275.245 361.94 262.068C360.272 260.308 360.293 258.683 362.003 257.193C362.764 256.288 363.368 255.294 363.813 254.21C364.56 252.139 364.86 249.546 365.26 247.35C366.442 240.861 363.475 234.785 366.248 228.434C350.067 240.694 334.514 254.543 319.154 267.815C305.377 279.72 291.001 295.309 285.938 313.073C285.29 315.349 284.212 317.931 284.33 320.333C284.56 325.049 285.031 324.032 288.83 325.548C292.63 327.065 298.163 326.934 302.249 327.095C304.578 327.185 314.98 324.719 312.912 329.83C311.72 332.777 304.509 332.666 301.927 332.938C295.447 333.622 291.933 332.92 295.003 339.944C296.379 343.092 299.167 345.225 301.354 347.661C307.441 354.44 310.747 364.837 315.535 372.801C320.99 381.874 326.987 390.502 333.358 398.952C335.987 402.438 339.501 408.991 343.146 411.479C346.549 413.802 342.545 413.61 348.198 412.666C350.662 412.256 352.895 410.653 355.252 410.079C369.345 406.646 383.831 402.776 398.405 398.538C417.047 393.118 436.61 388.495 454.396 380.689C470.329 373.694 486.144 365.367 502.244 358.283C506.946 356.216 511.642 354.845 515.296 351.04C519.708 346.448 523.359 340.436 527.427 335.5C534.346 327.103 540.723 318.563 548.17 310.606C553.714 304.685 563.538 293.679 571.359 291.315C586.22 286.826 578.265 309.461 576.345 315.182C579.838 315.975 581.674 311.494 585.774 312.783C590.683 314.327 591.191 320.855 591.805 324.946C591.968 326.036 590.493 328.073 590.941 329.045C591.094 329.376 594.297 331.27 594.915 332.148C597.158 335.337 596.717 339.215 595.867 342.654C591.469 360.469 575.838 373.477 564.341 386.618C569.484 385.645 573.297 382.714 578.152 381.261C582.709 379.898 587.29 379.969 591.883 379.578C596.692 379.169 601.311 377.369 606.231 377.278C611.394 377.182 616.337 378.652 621.457 379.235Z" fill="#1F2937"/>
<path fill-rule="evenodd" clip-rule="evenodd" d="M77.7366 219C74.9016 220.853 74.1025 222.671 74.0046 226.946C73.9655 228.699 74.0864 235.24 76.5367 234.993C78.8363 234.762 77.7366 221.249 77.7366 219ZM63.0918 229.653C64.4128 215.952 69.4255 202.021 81.2173 193.484C84.1335 191.373 87.4324 191.448 90.6285 190.116C92.5493 189.316 95.584 185.596 97.7647 186.036C105.792 187.66 96.518 198.326 95.1599 201.132C90.9513 209.825 91.2355 217.463 91.3611 226.841C91.4568 233.968 92.9378 245.983 89.3446 252.434C85.5145 259.303 77.2072 254.842 72.5701 250.777C66.7178 245.644 62.2978 237.471 63.0918 229.653Z" fill="#1F2937"/>
<path fill-rule="evenodd" clip-rule="evenodd" d="M204.01 270.142C204.01 277.787 210.215 272.611 209.994 267.173C209.669 259.167 203.72 264.097 204.01 270.142ZM236.999 227.876C230.208 233.984 224.969 237.411 223.66 246.803C222.669 253.917 223.654 260.963 223.696 268.129C223.767 280.141 214.067 292.769 203.629 279C196.015 268.957 198.746 253.165 204.955 243.071C208.213 237.776 212.864 232.537 218.237 229.237C222.278 226.753 233.646 221.866 236.999 227.876Z" fill="#1F2937"/>
<path fill-rule="evenodd" clip-rule="evenodd" d="M142.151 413C141.364 414.863 139.516 422.469 143.287 420.749C146.616 419.229 144.459 414.187 142.151 413ZM122.224 389.517C121.642 386.657 121.879 368.727 126.818 370.072C130.697 371.126 131.338 380.304 132.918 383.498C138.803 395.393 152.31 402.8 156.968 415.077C162.167 428.787 146.448 429.213 138.107 423.661C128.231 417.086 122.517 400.99 122.224 389.517Z" fill="#1F2937"/>
<path fill-rule="evenodd" clip-rule="evenodd" d="M110.117 316C112.26 313.106 112.477 311.56 111.255 309C109.693 310.699 109.97 313.127 110.117 316ZM111.668 328.945C100.494 330.196 99.9347 309.605 101.848 302.535C103.372 296.904 106.648 290.854 110.021 286.266C110.702 285.34 117.162 277.021 118.428 277.001C123.288 276.924 121.953 282.415 121.428 284.459C119.777 290.899 119.123 296.281 119.568 303.421C120.044 311.061 123.662 329.199 111.668 328.945Z" fill="#1F2937"/>
<path fill-rule="evenodd" clip-rule="evenodd" d="M619 150.618C603.023 164.017 587.855 178.523 570.482 190.243C561.981 195.979 553.094 201.053 544.611 206.882C540.291 209.851 535.883 212.509 531.09 214.691C526.856 216.619 524.088 216.87 527.601 212.294C529.949 209.237 535.212 207.107 538.411 204.934C543.333 201.587 547.982 197.875 553.16 194.906C562.288 189.669 571.361 185.441 579.775 179.019C587.244 173.32 594.949 167.756 602.077 161.699C605.134 159.102 615.269 147.178 619 150.618Z" fill="#1F2937"/>
<path fill-rule="evenodd" clip-rule="evenodd" d="M619.323 199C626.508 205.146 608.531 221.984 604.431 225.8C600.108 229.825 595.347 233.415 590.645 236.98C588.99 238.236 579.96 246.639 577.668 245.961C573.146 244.622 579.083 239.17 580.627 237.749C585.62 233.145 590.72 228.677 595.602 223.949C600.005 219.689 604.773 215.744 609.031 211.346C612.48 207.783 615.378 201.746 619.323 199Z" fill="#1F2937"/>
<path fill-rule="evenodd" clip-rule="evenodd" d="M86.9994 446.756C85.1234 442.409 81.7636 447.235 83.4669 449.406C85.0778 451.461 86.7595 447.591 86.9994 446.756ZM75.9994 438.172C77.0051 431.78 79.3294 428.228 85.3258 433.684C89.4463 437.433 97.7335 448.094 96.9471 453.906C95.9149 461.529 87.5188 459.366 83.1664 455.38C78.705 451.294 76.7355 443.84 75.9994 438.172Z" fill="#1F2937"/>
<path fill-rule="evenodd" clip-rule="evenodd" d="M89.1399 563.975C81.7941 563.416 75.5271 557.776 72.4076 551.167C69.7829 545.609 67.2986 536.65 76.5197 539.571C82.5295 541.476 105.697 564.871 89.1399 563.975Z" fill="#1F2937"/>
<path fill-rule="evenodd" clip-rule="evenodd" d="M178.164 527.74C172.487 529.033 166.872 525.294 163.381 521.078C161.209 518.452 156.154 509.247 158.701 505.458C162.251 500.173 167.611 510.796 169.46 512.899C172.36 516.192 181.844 522.49 178.164 527.74Z" fill="#1F2937"/>
<path fill-rule="evenodd" clip-rule="evenodd" d="M183.277 384C178.827 381.935 174.696 379.449 172.906 374.517C171.768 371.375 170.812 361.957 175.866 362C181.712 362.052 195.098 383.057 183.277 384Z" fill="#1F2937"/>
<path fill-rule="evenodd" clip-rule="evenodd" d="M152.079 286.003C158.037 285.895 159.448 289.181 160.276 293.902C160.839 297.106 163.568 307.983 160.734 310.211C156.684 313.395 150.241 306.1 148.939 303.236C146.255 297.34 149.966 291.541 152.079 286.003Z" fill="#1F2937"/>
<path fill-rule="evenodd" clip-rule="evenodd" d="M254.458 612.138C257.359 613.458 263.959 616.385 261.437 620.927C258.8 625.677 251.229 621.061 248.401 618.985C247.217 618.116 239.695 612.428 240.01 610.521C240.673 606.467 251.042 611.757 254.458 612.138Z" fill="#1F2937"/>
<path fill-rule="evenodd" clip-rule="evenodd" d="M63.3264 315.508C65.3088 320.472 67.5403 337.526 57.1011 328.317C53.9154 325.506 53.4346 321.996 54.5322 318.137C56.1193 312.545 58.429 313.654 63.3264 315.508Z" fill="#1F2937"/>
<path fill-rule="evenodd" clip-rule="evenodd" d="M616.538 252C614.226 247.277 619.933 244.231 622.983 241.187C624.974 239.199 633.347 228.416 636.092 229.025C641.739 230.278 619.314 249.894 616.538 252Z" fill="#1F2937"/>
<path fill-rule="evenodd" clip-rule="evenodd" d="M152.004 594.086C157.451 593.212 158.722 599.262 162.231 601.899C163.736 603.031 168.902 604.025 167.863 606.427C165.133 612.733 151.737 598.326 152.004 594.086Z" fill="#1F2937"/>
<path fill-rule="evenodd" clip-rule="evenodd" d="M198 451.192C201.744 449.625 212.55 458.043 209.447 461.68C204.809 467.121 198.264 454.169 198 451.192Z" fill="#1F2937"/>
<path fill-rule="evenodd" clip-rule="evenodd" d="M276.917 572.986C274.188 573.257 262.671 569.637 266.938 564.79C269.934 561.385 277.896 569.904 276.917 572.986Z" fill="#1F2937"/>
<path fill-rule="evenodd" clip-rule="evenodd" d="M139 549.728C136.291 550.811 126.519 548.583 129.591 544.339C132.518 540.299 139.004 546.374 139 549.728Z" fill="#1F2937"/>
<path fill-rule="evenodd" clip-rule="evenodd" d="M219 568.037C222.168 567.708 224.456 569.618 225 572.852C221.038 573.417 219.816 572.475 219 568.037Z" fill="#1F2937"/>
<path fill-rule="evenodd" clip-rule="evenodd" d="M631 98.4905C632.338 98.4965 633.674 98.5035 635 98.5095C633.66 98.5025 632.331 98.4965 631 98.4905Z" fill="#1F2937"/>
<path fill-rule="evenodd" clip-rule="evenodd" d="M610 376.996C607.999 376.998 605.999 377.002 604 377.004C606.001 377 608.001 376.998 610 376.996Z" fill="#1F2937"/>
<path fill-rule="evenodd" clip-rule="evenodd" d="M337.139 51C337.047 53.0023 336.955 55.0046 336.861 57C336.951 54.996 337.045 52.9971 337.139 51Z" fill="#1F2937"/>
<path fill-rule="evenodd" clip-rule="evenodd" d="M956.806 391C957.444 393.225 956.51 393.593 954 392.106C954.934 391.737 955.87 391.369 956.806 391Z" fill="#1F2937"/>
<path fill-rule="evenodd" clip-rule="evenodd" d="M900 565.49C901.004 565.496 902.007 565.504 903 565.51C901.993 565.504 900.997 565.496 900 565.49Z" fill="#1F2937"/>
<path fill-rule="evenodd" clip-rule="evenodd" d="M710 404.525C708.323 405.803 706.655 405.983 705 404.457C706.667 404.481 708.333 404.503 710 404.525Z" fill="#1F2937"/>
<path fill-rule="evenodd" clip-rule="evenodd" d="M672.565 234C672.523 235.669 672.479 237.337 672.435 239C672.477 237.329 672.522 235.664 672.565 234Z" fill="#1F2937"/>
<path fill-rule="evenodd" clip-rule="evenodd" d="M759 79.6997C757.333 79.6987 755.665 79.6967 754 79.6947C755.668 79.0707 757.335 79.2757 759 79.6997Z" fill="#1F2937"/>
<path fill-rule="evenodd" clip-rule="evenodd" d="M311 59.67C309.667 59.557 308.332 59.443 307 59.33C308.332 59.443 309.665 59.557 311 59.67Z" fill="#1F2937"/>
<path fill-rule="evenodd" clip-rule="evenodd" d="M333 61.2548C331.667 61.7518 330.334 62.0458 329 61.2618C330.334 61.2598 331.667 61.2568 333 61.2548Z" fill="#1F2937"/>
<path fill-rule="evenodd" clip-rule="evenodd" d="M214 63.993C212.332 64.332 210.666 64.671 209 65.007C210.668 64.671 212.334 64.332 214 63.993Z" fill="#1F2937"/>
<path fill-rule="evenodd" clip-rule="evenodd" d="M673.568 471C673.522 472.002 673.476 473.003 673.432 474C673.479 472.997 673.523 471.998 673.568 471Z" fill="#1F2937"/>
<path fill-rule="evenodd" clip-rule="evenodd" d="M122.471 390C122.491 390.668 122.511 391.336 122.529 392C122.508 391.33 122.49 390.665 122.471 390Z" fill="#1F2937"/>
<path fill-rule="evenodd" clip-rule="evenodd" d="M963 386.412L958 386.438C959.663 385.196 961.33 385.354 963 386.412Z" fill="#1F2937"/>
<path fill-rule="evenodd" clip-rule="evenodd" d="M621 379.33C619.665 379.11 618.332 378.89 617 378.67C618.332 378.89 619.667 379.11 621 379.33Z" fill="#1F2937"/>
<path fill-rule="evenodd" clip-rule="evenodd" d="M255 611.987C253.333 611.663 251.667 611.337 250 611.013L255 611.987Z" fill="#1F2937"/>
<path fill-rule="evenodd" clip-rule="evenodd" d="M591.546 325C591.515 323.999 591.484 322.998 591.454 322C591.484 323.001 591.515 324.001 591.546 325Z" fill="#1F2937"/>
<path fill-rule="evenodd" clip-rule="evenodd" d="M439 34.9545C438 34.6515 436.999 34.3485 436 34.0455C437 34.3485 438 34.6515 439 34.9545Z" fill="#1F2937"/>
<path fill-rule="evenodd" clip-rule="evenodd" d="M558 709.439C558.669 709.48 559.339 709.521 560 709.561C559.328 709.52 558.663 709.479 558 709.439Z" fill="#1F2937"/>
<path fill-rule="evenodd" clip-rule="evenodd" d="M99 172.46C100.004 172.486 101.008 172.513 102 172.54C100.991 172.513 99.9955 172.486 99 172.46Z" fill="#1F2937"/>
<path fill-rule="evenodd" clip-rule="evenodd" d="M770 80.676C768.333 80.559 766.667 80.442 765 80.324C766.668 80.442 768.333 80.559 770 80.676Z" fill="#1F2937"/>
<path fill-rule="evenodd" clip-rule="evenodd" d="M243 75.994C240.661 75.998 238.325 76.002 236 76.006C238.344 76.002 240.672 75.998 243 75.994Z" fill="#1F2937"/>
<path fill-rule="evenodd" clip-rule="evenodd" d="M715.452 282C715.482 283.669 715.515 285.338 715.548 287C715.518 285.33 715.488 283.664 715.452 282Z" fill="#1F2937"/>
<path fill-rule="evenodd" clip-rule="evenodd" d="M593 640.032C591.662 640.012 590.327 639.99 589 639.968C590.34 639.986 591.67 640.01 593 640.032Z" fill="#1F2937"/>
<path fill-rule="evenodd" clip-rule="evenodd" d="M735 110.194C737 109.972 738.999 109.75 741 109.528C739.08 111.226 737.007 110.096 735 110.194Z" fill="#1F2937"/>
<path fill-rule="evenodd" clip-rule="evenodd" d="M582 640.555C580.997 640.517 579.995 640.481 579 640.445C580.007 640.483 581.003 640.518 582 640.555Z" fill="#1F2937"/>
<path fill-rule="evenodd" clip-rule="evenodd" d="M547.424 658C547.474 659.67 547.525 661.338 547.576 663C547.527 661.327 547.475 659.664 547.424 658Z" fill="#1F2937"/>
<path fill-rule="evenodd" clip-rule="evenodd" d="M700 171.598C701.334 171.474 702.667 171.35 704 171.227C702.783 172.165 701.354 171.616 700 171.598Z" fill="#1F2937"/>
<path fill-rule="evenodd" clip-rule="evenodd" d="M263 437.633C264.333 437.879 265.668 438.123 267 438.367C265.667 438.123 264.333 437.879 263 437.633Z" fill="#1F2937"/>
<path fill-rule="evenodd" clip-rule="evenodd" d="M471 174.504C472.664 173.086 474.331 173.24 476 174.488C474.333 174.492 472.667 174.498 471 174.504Z" fill="#1F2937"/>
<path fill-rule="evenodd" clip-rule="evenodd" d="M408.427 225C408.475 224.333 408.522 223.666 408.573 223C408.527 223.668 408.477 224.334 408.427 225Z" fill="#1F2937"/>
<path fill-rule="evenodd" clip-rule="evenodd" d="M699.479 206C699.493 207.336 699.506 208.671 699.521 210C699.508 208.661 699.494 207.331 699.479 206Z" fill="#1F2937"/>
<path fill-rule="evenodd" clip-rule="evenodd" d="M258.284 415.031C260.478 415.775 264.891 418.022 267.448 417.724C269.495 417.485 271.182 414.997 273.156 415C278.471 415.007 277.485 421.151 274.917 424.449C267.972 433.371 252.453 423.697 258.284 415.031Z" fill="#1F2937"/>
<path fill-rule="evenodd" clip-rule="evenodd" d="M279.977 383C287.225 384.871 283.615 400.814 277.522 401.91C270.348 403.202 269.098 390.238 270.515 385.552C274.207 387.746 271.921 395.572 276.574 393.409C279.533 392.032 279.083 385.666 279.977 383Z" fill="#1F2937"/>
</svg>
