<svg width="1024" height="768" viewBox="0 0 1024 768" fill="none" xmlns="http://www.w3.org/2000/svg">
<path fill-rule="evenodd" clip-rule="evenodd" d="M344 337.466C349.023 317.935 353.757 297.979 361.21 279.209C365.875 267.463 370.818 255.824 375.769 244.197C376.455 242.583 376.745 241.027 378.081 240.223C379.865 239.15 383.557 239.173 385.57 238.804C414.167 233.559 443.061 229.556 472.05 227.304C505.132 224.734 537.384 225.91 570.118 231.301C598.113 235.911 625.831 242.265 653.247 249.541C657.277 250.61 661.301 251.702 665.317 252.825C667.189 253.348 670.295 253.615 671.927 254.707C675.414 257.041 676.596 266.604 677.903 270.655C679.654 276.086 680.674 283.546 684.049 288.166C689.075 295.042 696.725 301.007 702.955 306.724C724.697 326.675 748.53 344.875 776.609 354.739C820.05 369.999 865.857 379.563 910.858 389.019C911.905 389.239 912.953 389.458 914 389.675C902.351 402.575 890.701 415.475 879.052 428.375C872.484 435.648 865.917 442.92 859.35 450.192C855.973 453.931 856.343 454.598 851.568 453.557C827.639 448.336 803.753 442.644 780.258 435.706C768.74 432.306 757.024 428.775 746.308 423.267C731.558 415.686 717.714 406.314 704.24 396.689C692.195 388.084 680.433 379.082 668.883 369.825C666.606 368.001 658.39 359.204 655.725 359.777C653.427 360.271 649.449 365.501 647.766 367.024C643.315 371.053 638.845 375.063 634.349 379.041C627.192 385.369 619.883 393.12 611.524 397.883C602.715 402.903 592.619 406.323 583.322 410.32C578.136 412.549 572.944 414.77 567.752 416.986C566.396 417.564 564.504 418.822 563.041 418.853C558.713 418.945 552.429 415.427 548.415 414.057C538.103 410.537 527.866 406.793 517.736 402.78C496.106 394.209 472.333 384.897 454.531 369.475C451.425 366.785 448.39 363.773 446.335 360.179C445.622 358.933 444.562 357.198 444.489 355.726C444.373 353.38 445.692 352.92 447.654 351.453C457.78 343.885 468.697 337.289 479.435 330.638C481.958 329.076 484.486 327.52 487.022 325.98L361.561 336.055C355.707 336.526 349.854 336.995 344 337.466Z" fill="#6366F1"/>
<path fill-rule="evenodd" clip-rule="evenodd" d="M530.821 98.5823C544.076 99.1869 557.665 99.803 570.805 101.669C583.903 103.527 596.125 108.282 607.963 114.04C629.308 124.42 651.124 137.038 664.852 157.005C671.271 166.341 676.506 176.116 685.366 183.465C687.439 185.183 689.698 187.249 692.449 187.775C694.636 188.193 696.565 187.308 698.707 187.202C702.795 186.999 704.344 189.154 704.344 193.215C707.412 191.99 710.753 190.882 714.1 191.332C716.897 191.709 719.122 193.396 721.808 194.105C726.655 195.385 731.399 193.471 736.009 192.044C747.652 188.442 760.441 185.714 772.674 186.999C780.731 187.846 790.495 191.34 786.323 201.718C782.863 210.327 769.924 214.685 761.751 216.827C754.8 218.649 745.453 217.023 746.041 226.614C746.45 233.309 747.464 240.49 754.58 242.662C758.481 243.853 772.304 245.628 764.232 251.669C758.271 256.129 756.19 263.981 751.656 269.878C745.877 277.394 738.043 283.47 728.885 286.213C718.638 289.283 707.795 288.694 697.269 289.885C704.683 300.116 715.387 307.152 725.13 314.932C735.374 323.112 745.258 332.052 757.115 337.883C767.742 343.11 779.223 346.739 790.199 351.171C801.727 355.826 813.336 360.427 825.235 364.054C849.237 371.368 874.484 376.477 899.161 380.964C911.338 383.179 923.278 382.854 935.579 383.051C948.197 383.254 960.807 385.466 973.193 387.738C979.198 388.841 985.26 389.536 991.264 390.633C994.145 391.16 1005.55 392.321 1005.96 396.541C1006.62 403.413 999.191 407.265 993.748 409.182C991.423 410.001 987.68 409.881 985.667 411.007C983.489 412.225 984.339 414.017 984.09 416.375C983.727 419.802 981.893 422.267 979.082 424.168C976.77 425.732 973.983 425.67 975.577 428.632C976.312 429.997 978.151 430.858 978.999 432.298C979.968 433.941 980.414 435.743 980.217 437.634C979.873 440.944 977.685 443.47 974.635 444.641C969.759 446.512 964.037 445.188 959.043 444.58C950.686 443.564 942.206 443.462 933.961 441.634C925.364 439.728 916.999 436.791 908.392 434.839C903.979 433.838 899.557 432.999 895.244 431.611C892.438 430.709 888.382 428.364 885.393 429.099C882.593 429.786 880.405 433.166 878.575 435.128C876.048 437.835 873.603 440.615 871.036 443.284C869.335 445.051 867.59 446.782 865.733 448.386C865.129 448.907 861.4 451.187 861.348 451.799C861.203 453.528 865.273 453.499 866.145 454.186C871.212 458.19 863.599 460.724 860.314 460.523C852.742 460.061 845.132 459.132 837.632 458.02C819.776 455.371 801.971 452.512 784.898 446.531C768.011 440.615 751.532 434.323 735.913 425.505C720.92 417.042 706.419 407.474 692.257 397.694C685.386 392.948 678.467 388.031 672.664 381.985C666.99 376.072 662.364 369.283 657.658 362.602C646.389 373.485 635.544 384.93 623.438 394.907C611.923 404.397 598.08 409.467 584.686 415.631C585.12 418.432 598.211 420.109 600.602 420.837C611.522 424.159 622.001 429.491 632.622 433.672C650.291 440.628 667.056 449.68 672.941 468.998C678.726 487.992 672.016 507.111 663.832 524.27C654.172 544.525 642.699 563.286 628.829 580.944C622.929 588.456 616.573 595.372 610.099 602.367C604.575 608.336 599.839 615.406 602.154 623.89C606.599 622.501 607.414 625.969 604.507 628.905C601.924 631.514 597.459 632.021 594.009 632.453C583.552 633.764 572.75 633.301 562.281 632.327C543.219 630.551 524.115 625.741 506.857 617.463C498.271 613.345 495.164 619.985 489.259 625.128C484.613 629.174 478.216 631.797 474.685 637.032C471.781 641.339 473.677 648.144 479.71 646.531C484.405 645.274 488.176 640.038 493.148 639.836C501.973 639.479 485.323 652.068 483.192 653.605C487.41 657.376 492.192 652.204 496.445 651.341C500.524 650.513 501.663 652.624 499.489 656.024C497.794 658.675 492.47 660.552 496.011 663.777C498.945 666.448 505.45 667.854 509.052 669.024C520.289 672.678 531.469 675.277 543.168 676.945C546.946 677.484 553.002 677.14 556.065 679.817C560.105 683.35 558.157 689.203 556.112 693.249C548.367 708.577 532.262 716.111 515.722 717.215C505.536 717.893 495.254 717.236 485.035 717.786C473.837 718.388 462.614 719.283 451.391 718.913C433.348 718.319 421.869 705.279 412.874 690.94C407.159 681.829 401.892 672.454 396.945 662.908C395.012 659.178 390.965 655.315 390.277 651.124C389.656 647.351 392.063 644.326 394.402 641.657C400.557 634.632 407.962 629.271 415.197 623.467C419.328 620.154 420.916 617.409 422.755 612.586C424.304 608.526 427.281 606.791 429.903 603.551C432.786 599.987 431.881 599.357 429.632 596.445C427.279 593.395 428.203 588.902 429.192 585.451C430.609 580.5 433.65 579.41 438.19 577.815C442.331 576.361 445.841 573.809 449.512 571.442C467.646 559.75 484.732 546.519 503.091 535.153C521.203 523.939 540.132 514.033 557.418 501.52C543.381 499.633 531.006 492.055 517.764 487.567C510.969 485.264 504.238 482.804 497.664 479.922C495.153 478.821 492.227 477.843 489.987 476.224C487.737 474.598 486.007 472.458 483.648 470.92C478.05 467.267 471.394 465.188 465.374 462.341C458.873 459.267 452.456 455.906 446.414 451.994C440.774 448.34 435.359 444.165 430.669 439.34C426.933 435.496 423.3 430.487 418.011 428.721C418.566 436.086 427.691 442.185 432.692 446.618C440.807 453.81 449.243 459.922 458.314 465.862C448.14 474.578 435.739 480.253 423.824 486.141C410.428 492.759 397.406 500.097 384.064 506.818C372.761 512.512 360.87 516.899 349.381 522.19C336.987 527.898 324.229 532.684 311.297 537.027C299.594 540.957 288.575 545.148 277.532 550.664C266.797 556.027 255.31 560.128 243.826 563.57C230.923 567.437 218.612 571.115 206.202 576.417C195.012 581.197 183.776 584.252 171.933 586.851C168.021 587.71 162.998 589.285 160.258 585.498C158.181 582.628 157.869 578.203 157.273 574.827C154.99 561.911 154.809 548.789 152.755 535.852C144.96 538.204 137.576 541.098 129.352 541.471C124.182 541.706 121.04 542.239 119.752 547.883C122.743 548.221 133.429 548.369 133.718 552.604C133.979 556.425 127.513 556.464 125.22 556.569C121.117 556.756 117.398 556.083 115.208 560.099C118.435 561.29 125.588 559.118 127.017 563.457C128.858 569.054 120.498 569.04 117.49 569.491C112.242 570.277 112.781 574.398 113.141 578.803C113.614 584.598 113.972 590.402 114.755 596.168C116.427 608.489 119.292 620.624 120.649 632.99C121.822 643.683 122.479 653.953 114.835 662.473C111.762 665.9 107.49 669.843 102.66 670.251C97.7578 670.664 97.8472 667.232 94.7959 664.705C92.926 663.158 90.4496 662.841 88.2471 662.006C85.5678 660.991 82.9683 659.504 80.561 657.963C76.1244 655.124 72.2462 651.6 69.1093 647.364C56.8414 630.79 52.4557 606.028 51.2405 585.932C50.4676 573.154 51.2386 560.358 52.4114 547.63C53.043 540.774 53.6785 533.915 54.5082 527.08C54.7648 524.963 55.1946 522.841 55.3542 520.717C55.4455 519.501 54.8591 517.044 55.4801 515.878C54.687 517.365 53.2824 516.265 51.8875 515.094C49.0082 512.676 49.8946 508.033 51.4347 504.854C56.0752 495.272 69.9822 494.9 79.0296 494.155C103.349 492.152 126.453 485.632 149.736 478.668C146.45 473.748 151.618 470.501 155.624 468.81C161.802 466.203 168.181 463.911 174.417 461.422C188.498 455.799 202.286 450.557 217.031 446.969C230.387 443.72 243.311 438.326 256.488 434.372C270.103 430.286 283.472 425.617 296.863 420.858C323.386 411.433 349.933 401.803 375.673 390.37C382.179 387.48 388.394 384.129 394.673 380.786C399.774 378.071 405.76 376.08 410.085 372.157C414.214 368.411 416.686 363.203 421.175 359.801C425.216 356.738 430.746 356.696 434.095 352.891C438.623 347.747 444.029 345.486 450.176 342.469C452.151 341.5 465.151 336.604 464.887 333.825C455.596 333.825 446.06 336.589 436.872 337.876C427.155 339.237 417.445 340.75 407.656 341.503C391.795 342.722 375.941 342.392 360.147 340.673C357.787 340.417 348.318 338.473 346.686 341.004C345.442 342.933 348.535 345.229 348.565 347.302C348.611 350.343 346.16 351.974 343.384 350.917C337.979 348.863 338.771 340.154 339.276 335.735C340.242 327.282 342.391 318.906 344.27 310.624C333.119 316.299 322.531 323.584 312.929 331.592C305.491 337.793 298.774 346.202 290.046 350.623C281.666 354.87 276.683 351.247 277.027 341.899C277.184 337.616 278.052 333.551 279.536 329.562C280.237 327.678 283.116 322.343 281.767 320.335C274.108 326.442 266.5 332.564 258.46 338.17C252.776 342.132 244.536 348.313 237.116 346.74C230.562 345.351 231.203 338.141 233.281 333.283C235.082 329.069 238.32 325.326 241.529 322.108C244.183 319.448 247.955 317.065 249.284 313.378C240.481 317.333 231.419 320.326 222.197 323.105C215.64 325.082 211.056 333.29 203.431 332.077C195.797 330.863 198.837 321.431 201.884 317.33C204.016 314.461 206.966 311.934 209.827 309.814C212.616 307.745 216.861 305.943 218.234 302.501C209.316 304.175 200.35 307.084 191.174 306.548C185.725 306.229 176.629 303.85 177.705 296.526C178.794 289.109 188.671 288.541 194.225 287.158C201.797 285.271 209.044 281.73 216.351 279.029C231.092 273.579 246.12 269.208 261.202 264.864L265.966 263.492C282.99 258.586 300.11 254.408 317.345 250.333C325.864 248.318 334.353 246.121 342.938 244.402C351.245 242.739 359.684 241.776 367.927 239.789C360.98 229.304 369.392 220.689 378.476 215.699C372.715 214.534 366.856 213.834 361.145 212.422C356.267 211.216 351.566 209.364 346.652 208.297C338.208 206.464 329.774 205.5 322.565 200.272C308.942 190.391 307.783 174.667 319.262 162.769C330.846 150.761 347.849 145.138 364.212 144.579C382.527 143.955 403.366 147.504 420.504 153.988C428.923 157.173 437.688 161.223 444.905 166.648C449.814 170.337 457.577 177.408 464.166 177.408C456.274 167.865 446.589 157.997 445.165 145.073C443.815 132.838 449.366 119.833 458.68 111.918C477.291 96.1093 508.004 97.5405 530.821 98.5823ZM424.716 623C419.858 630.554 413.14 636.687 406.797 642.957C404.609 645.119 400.218 647.87 400.006 651.257C399.835 654.023 403.228 657.133 404.71 659.306C412.546 670.8 418.998 683.493 428.57 693.701C439.389 705.236 451.737 707.479 467.057 707.512C484.067 707.549 501.304 709.677 518.284 708.78C532.669 708.02 546.847 701.616 554 688.598C549.34 686.196 542.709 687.341 537.659 687.395C530.773 687.467 524.051 687.343 517.248 686.146C511.082 685.061 504.988 683.433 499.189 681.055C496.188 679.825 493.22 678.418 490.457 676.708C488.433 675.458 486.913 673.542 484.925 672.314C477.594 667.788 469.128 682.179 461.293 681.902C456.493 681.734 458.23 677.014 460.228 674.374C463.833 669.606 470.121 666.663 474.869 663.187C470.449 659.119 465.454 663.385 461.246 665.511C455.984 668.169 450.517 671.432 444.638 672.43C445.078 664.854 455.385 660.793 461.071 657.712C463.601 656.34 466.772 655.068 467.395 652.052C467.864 649.784 467.062 646.559 466.824 644.268C466.523 641.356 466.3 640.426 463.199 639.605C459.438 638.609 455.651 638.897 451.884 637.654C441.573 634.249 433.553 629.196 424.716 623ZM89.6346 503.614C87.1168 504.312 84.573 504.916 82.0158 505.456C76.9542 506.523 71.8859 507.632 66.807 508.601C64.2594 509.087 61.4307 508.779 60.68 511.21C60.2941 512.456 61.2652 514.696 61.4317 515.99C61.731 518.325 61.7503 520.691 61.7782 523.043C62.0438 544.704 57.5145 566.24 59.5087 587.9C61.193 606.205 65.1352 629.352 78.5837 642.986C84.3883 648.87 91.5297 655.26 98.8386 659.282C104.568 662.433 112.572 654.523 113.742 649.047C114.581 645.123 113.182 640.982 112.272 637.199C111.104 632.352 109.921 627.507 108.765 622.657C106.297 612.306 104.052 601.857 103.343 591.216C103.11 587.72 103.16 584.352 103.357 580.871C103.464 578.981 104.354 574.426 103.032 572.807C101.322 570.713 97.4142 572.081 95.1004 572.26C92.5634 572.456 90.087 572.305 87.6086 571.657C81.7088 570.115 80.6751 565.427 87.1168 563.255C91.6144 561.739 99.8357 563.936 103.614 561.018C108.054 557.589 99.0811 557.119 96.9859 557.029C94.1957 556.911 84.9417 557.641 85.4142 552.441C85.7636 548.587 93.7299 548.33 96.5172 548.166C102.472 547.817 110.006 550.046 112.58 542.868C113.611 539.992 107.401 538.532 105.842 537.106C102.055 533.64 100.814 527.698 100.488 522.829C100.168 518.041 104.881 501.445 97.7 501.006C95.495 500.872 91.83 503.005 89.6346 503.614ZM442.815 599.393C438.589 604.425 434.936 609.936 431 615.195C440.232 620.288 449.675 624.385 459.221 628.764C463.562 630.757 466.605 632.336 470.806 629.316C473.82 627.15 476.08 624.07 479.021 621.817C483.249 618.581 487.666 615.615 492 612.53C479.213 607.865 466.23 603.771 453.447 599.096C448.666 597.348 446.267 595.282 442.815 599.393ZM337.526 583.412C340.26 586.184 334.996 593.864 333.959 596.493C342.438 595.821 350.846 594.484 359.172 592.764C362.007 592.179 360.962 595.63 359.901 596.768C358.589 598.177 355.965 598.603 354.211 599.105C347.758 600.955 341.138 601.845 334.515 602.832C337.546 606.561 344.839 612.393 342.49 618C338.255 614.351 335.21 609.495 330.525 606.34C329.171 608.359 326.363 615.481 323.286 615.045C318.454 614.36 323.349 606.037 324.359 604.033C321.106 604.033 308.881 606.888 307.175 602.884C305.43 598.787 317.227 598.92 319.408 597.952L319.002 597.456L318.593 596.964C316.963 594.998 315.397 593.06 315.176 590.362C318.824 591.618 321.26 597.333 325.269 597.416C329.07 597.495 330.767 591.784 332.122 589.079C332.892 587.541 335.507 581.364 337.526 583.412ZM748.898 529.542C757.072 536.436 751.519 550.339 745.334 556.59C738.404 563.592 722.975 570.025 714.192 562.887C709.384 558.98 711.119 553.02 712.303 547.823C713.619 542.048 714.438 537.179 719.222 533.216C726.664 527.051 740.605 522.549 748.898 529.542ZM732.305 533.548C724.33 535.243 716.249 543.21 714.354 551.42C711.867 562.187 723.047 562.973 730.411 561.355C739.675 559.32 749.517 552.528 749.99 541.874C750.397 532.68 738.501 532.23 732.305 533.548ZM152 487C140.058 491.444 128.833 497.524 116.303 500.161C112.48 500.966 110.909 501.846 109.964 505.408C108.639 510.392 107.384 515.444 108.33 520.652C110.293 531.465 125.343 530.14 133.7 529.716C137.991 529.498 146.243 530.282 149.965 527.605C152.685 525.651 151.544 521.984 151.12 519.131C149.535 508.462 151.264 497.662 152 487ZM803.096 383.96C798.699 384.789 791.098 388.372 797.402 392.864C801.607 395.859 807.866 396.223 812.807 396.963C822.458 398.408 832.761 399.657 841.135 405.1C856.654 415.186 854.753 434.219 850.111 449.796C853.454 451.765 863.274 438.894 865.124 436.801C872.628 428.31 880.162 419.845 887.726 411.409C890.965 407.8 864.422 395.337 862.037 394.215C849.428 388.284 837.659 384.379 823.516 383.361C816.809 382.878 809.734 382.709 803.096 383.96ZM748.353 352.39C747.148 355.427 749.259 356.804 751.198 358.902C762.04 370.629 769.675 387.227 775.712 401.785C778.722 409.045 780.831 416.365 782.695 423.971C784.524 431.434 790.333 433.428 797.294 435.546C813.327 440.427 830.205 442.06 846.294 446.88C850.605 448.171 851.451 438.695 851.721 436.292C852.491 429.454 851.776 422.318 848.182 416.291C841.389 404.898 827.77 402.476 815.622 400.535C808.675 399.426 799.522 398.28 794.024 393.531C791.265 391.147 790.874 388.413 793.026 385.452C796.95 380.051 803.859 379.357 810.032 378.916C813.039 378.702 831.654 380.583 832.263 378.381C822.994 375.361 813.48 373.369 804.347 369.916C797.223 367.221 790.041 364.677 782.852 362.155L775.662 359.635C768.35 357.072 761.656 353.953 754.641 350.867C752.006 349.708 749.589 349.278 748.353 352.39ZM905.579 401.801C903.258 404.923 900.955 407.543 899.215 411.05C897.184 415.141 893.816 417.751 891 421.264C905.624 423.844 919.575 427.121 933.665 431.847C940.899 434.274 948.372 435.473 955.772 437.211C961.979 438.669 968.594 440.93 975.022 439.593C967.701 429.506 948.176 432.295 943.036 420.078C939.538 411.768 948.134 405.139 955.164 403.697C967.442 401.178 980.53 400.984 993 400.086C993.131 395.316 947.863 392.846 943.388 392.459C935.44 391.772 927.146 390.282 919.213 390.007C911.851 389.751 909.444 396.605 905.579 401.801ZM732.841 366.911C728.481 371.125 724.213 375.431 719.856 379.651C716.992 382.425 713.113 385.38 710.855 388.685C707.973 392.905 713.022 394.934 716.385 396.931C724.877 401.973 733.652 406.68 742.292 411.476C750.054 415.785 758.127 421.269 766.695 423.79C771.277 425.138 775.58 427.231 780 429C777.868 409.868 766.881 392.49 756.749 376.54C754.422 372.877 752.019 369.266 749.693 365.604C748.52 363.761 746.346 359.41 743.888 359.035C740.256 358.479 735.043 364.783 732.841 366.911ZM955 415.606C960.311 418.649 965.635 420.195 971.626 417.896C973.099 417.295 974.559 416.659 976 415.99C972.008 410.546 960.202 413.864 955 415.606ZM515.105 349.023C505.69 353.267 495.62 357.495 487.432 363.898C484.41 366.262 477.656 371.228 479.236 375.731C480.589 379.587 488.065 382.871 491.615 384.046C510.292 390.228 531.548 385.731 548.745 397.075C553.399 400.145 554.916 404.157 558.373 408.194C561.5 411.844 565.457 411.391 569.659 409.876C575.176 407.887 580.26 404.84 585.799 402.887C588.631 401.889 593.444 401.227 593.739 397.406C595.124 379.392 591.281 356.443 575.4 345.422C557.573 333.05 532.98 340.967 515.105 349.023ZM505.009 391C504.553 393.284 522.224 397.419 524.143 397.948C534.813 400.887 544.781 407.873 555.833 409C557.755 404.715 542.446 397.892 540.025 397.012C528.976 393 516.612 392.272 505.009 391ZM852 383C865.396 388.489 878.381 395.21 889.61 404.556C893.483 407.779 902.893 392.484 905 390.139C887.157 389.397 869.573 385.993 852 383ZM601.618 275.407C589.199 283.61 578.383 294.337 564.748 300.625C569.015 301.297 573.673 298.535 577.747 297.566C581.715 296.623 585.727 296.001 589.59 294.666C591.963 293.846 601.762 288.55 603.601 292.139C606.474 297.746 586.237 301.625 583.36 302.581C573.643 305.81 563.99 309.192 554.372 312.706C545.057 316.11 535.748 319.772 526.122 322.216C516.345 324.699 505.979 325.338 496.58 329.194C488.269 332.603 481.125 338.245 473.108 342.227C465.068 346.22 455.93 348.69 449 354.633C456.536 362.674 465.448 369.408 475.198 374.534C476.759 362.271 491.134 355.289 500.969 350.575C522.409 340.299 554.608 324.803 576.461 342.217C592.432 354.945 594.596 379.094 594.596 398C598.922 396.623 602.872 394.432 606.891 392.364C609.674 390.93 609.705 386.94 610.055 384.275C610.629 379.911 611.809 375.684 613.165 371.497C616.163 362.236 619.916 353.2 623.494 344.152C629.283 329.516 636.418 315.081 639.976 299.683C642.298 289.634 645.06 272.362 632.943 267.374C622.46 263.06 610.13 269.785 601.618 275.407ZM547.383 234.505C545.358 235.862 546.114 239.933 546.252 241.975C546.754 249.402 546.439 256.86 546.688 264.3C546.99 273.366 547.057 289.99 556.406 295.074C562.801 298.55 570.754 293.341 575.857 289.793C584.492 283.793 592.413 276.825 601.167 270.968C611.545 264.024 631.21 254.417 641.141 267.481C646.515 274.551 645.761 285.086 644.421 293.312C642.651 304.165 638.517 314.459 634.409 324.602C625.925 345.546 617.071 366.831 612.353 389C623.11 382.608 631.475 373.395 640.863 365.302C647.821 359.303 658.156 352.413 659.762 342.637C660.125 340.429 662.263 338.856 663.733 337.379C665.647 335.456 666.995 333.509 668.207 331.057C670.883 325.64 672.622 319.789 673.718 313.861C676.018 301.425 674.922 289.046 672.801 276.683C671.842 271.092 673.25 265.093 671.946 259.643C671.041 255.859 668.371 256.083 664.817 255.222C652.022 252.123 639.203 249.118 626.4 246.047C621.2 244.799 615.545 242.458 610.146 242.536C605.715 242.6 601.992 245.242 598.167 247.156C591.887 250.298 581.905 255.795 574.695 252.67C566.292 249.029 576.084 240.809 571.87 236.92C568.981 234.253 560.346 235.852 556.43 235.19C554.283 234.827 549.352 233.186 547.383 234.505ZM679.606 341.903C673.495 342.866 669.957 345.516 666.591 350.716C663.171 356.002 662.764 358.619 667.641 362.755C672.9 367.215 678.403 371.621 683.986 375.638C691.063 380.729 698.914 384.583 705.909 389.799C708.972 392.084 722.876 374.175 725.288 371.72C728.616 368.332 732.032 364.935 735.603 361.816C736.907 360.677 740.998 358.035 741 356.097C741.005 351.198 730.14 346.815 726.645 345.466C718.812 342.446 710.6 341.226 702.255 341.1C694.857 340.988 686.934 340.747 679.606 341.903ZM706.837 320.353C701.1 323.399 695.108 325.966 689.334 328.949C687.286 330.006 674.372 335.431 675.024 338.673C689.557 337.752 704.026 335.293 718.513 338.106C725.018 339.37 731.218 341.488 736.655 345.396C740.772 348.355 743.911 354.04 748 348.98C739.653 344.251 732.137 337.982 724.735 331.895C721.496 329.231 718.162 326.725 714.874 324.133C712.918 322.592 709.692 318.838 706.837 320.353ZM363.079 249.54C358.533 250.178 354.102 251.383 349.637 252.417C331.549 256.606 313.392 260.367 295.352 264.8C259.369 273.641 222.31 282.167 188 296.332C190.885 299.521 198.529 297.211 202.109 296.586C209.118 295.361 215.919 293.222 222.843 291.607C229.615 290.028 236.412 288.145 243.24 286.829C246.385 286.223 251.932 285.425 252.059 290.139C252.239 296.823 239.253 301.821 234.486 304.264C229.389 306.876 224.455 309.763 219.603 312.801C215.767 315.203 208.693 318.404 207.449 323.177C219.896 317.904 232.352 312.653 244.722 307.202C249.382 305.148 254.103 303.214 258.539 300.709C261.497 299.038 265.304 296.107 268.806 295.844C273.549 295.487 274.334 299.792 272.336 303.266C269.836 307.615 264.676 310.069 260.88 313.112C256.042 316.993 251.76 321.571 247.403 325.964C243.787 329.61 239.13 333.2 237.242 338.13C243.743 340.304 251.13 333.335 255.907 329.89C263.414 324.477 270.407 318.589 277.569 312.739C281.233 309.746 285.6 304.9 290.423 304.006C296.534 302.873 296.028 309.859 294.545 313.71C291.233 322.318 283.478 329.495 282.924 339.199C282.583 345.173 287.644 342.899 291.02 340.503C296.706 336.467 300.554 330.317 305.714 325.689C318.141 314.541 332.365 305.032 347.737 298.428C350.488 297.246 351.477 293.003 352.314 290.453C353.562 286.647 354.998 282.957 356.498 279.237C359.785 271.088 362.481 262.281 367.087 254.754C368.371 252.655 371.685 250.515 368.944 249.281C367.454 248.61 364.618 249.324 363.079 249.54ZM494.3 235.756C489.644 236.299 484.931 236.25 480.266 236.742C472.652 237.544 475.973 246.805 474.747 252.385C471.135 268.811 453.723 271.913 440.528 264.164C433.105 259.803 428.648 253.553 424.656 246.242C422.38 242.074 420.685 241.404 415.977 242.447C412.746 243.163 409.806 243.011 406.519 243.249C402.382 243.549 402.022 244.426 401.937 248.362C401.863 251.858 401.36 254.279 399.033 257.111C394.597 262.504 387.159 266.055 380.823 268.765C374.475 271.481 367.284 273.5 363.798 279.919C362.04 283.155 360.157 287.019 359.648 290.697C359.092 294.716 360.456 297.21 358.112 300.917C353.24 308.625 351.007 317.048 348.543 325.807C347.74 328.66 347.423 329.834 350.538 330.619C355.008 331.745 361.356 330.036 365.942 329.856C369.215 329.728 371.126 323.959 372.189 321.622C374.257 317.076 376.793 312.773 379.332 308.471C385.086 298.726 391.239 289.046 398.755 280.531C404.429 274.105 412.805 266.105 420.069 275.135C427.149 283.936 432.251 294.243 440.766 301.915C448.255 308.662 455.972 308.77 463.738 302.375C471.385 296.08 477.196 287.49 481.948 278.92C487.088 269.653 490.964 259.759 495.973 250.436C497.543 247.514 504.794 239.609 502.585 236.223C501.093 233.936 496.393 235.512 494.3 235.756ZM533.294 233.735C529.195 233.928 525.071 233.468 520.972 233.386C513.554 233.239 507.351 233.499 503.626 240.606C500.338 246.879 497.537 253.552 494.536 259.975C488.017 273.928 481.621 288.206 471.613 300.079C462.746 310.598 451.29 315.898 439.755 305.849C434.641 301.393 430.755 295.645 427.085 289.995C424.143 285.465 420.785 277.493 415.856 274.852C410.36 271.908 404.068 278.661 400.708 282.326C395.059 288.487 390.338 295.732 385.804 302.728C382.515 307.803 379.367 312.984 376.17 318.117C374.875 320.199 369.598 327.008 371.354 329.602C373.116 332.202 381.713 330.424 384.2 330.186C390.139 329.62 396.071 329.416 402.013 328.904C420.496 327.315 438.705 323.254 457.235 322.17C469.441 321.455 481.469 319.096 493.484 316.953C505.167 314.869 516.925 313.447 528.484 310.693C535.28 309.073 542.088 307.452 548.871 305.772C551.218 305.191 562.31 303.606 563 300.556C555.362 299.223 551.351 296.26 548.643 288.809C545.25 279.476 544.856 269.076 544.567 259.243C544.456 255.46 544.438 251.676 544.435 247.891L544.435 243.351C544.434 240.637 545.606 235.712 543.16 233.83C540.896 232.088 535.917 233.609 533.294 233.735ZM684.929 294C685.25 306.297 683.051 318.691 678 329.926C683.284 330.772 689.569 324.143 694.002 321.923C695.71 321.067 707.015 316.959 703.229 313.818C696.265 308.042 691.699 299.972 684.929 294ZM836.462 304C838.012 307.058 836.097 310.939 835.06 313.839C843.124 315.777 851.154 317.68 859.279 319.325C865.401 320.564 863.265 324.236 857.951 323.983C850.559 323.631 843.682 320.5 836.327 320.093C829.321 319.706 828.496 325.822 822.523 327C822.726 323.635 825.448 321.298 827.404 318.773C824.18 317.119 820.887 315.582 817.76 313.76C816.14 312.816 811.665 308.858 813.388 306.755C815.127 304.632 819.688 308.61 821.311 309.486C823.618 310.732 828.223 313.477 830.937 312.69C834.655 311.611 833.881 306.274 836.462 304ZM720.279 223.877C717.008 224.104 713.45 223.004 710.351 224.443C707.262 225.879 703.575 229.022 700.992 231.201C698.491 233.311 697.247 235.873 694.137 237.119C691.03 238.364 687.848 238.254 686.651 242.052C689.469 242.825 695.001 241.8 697.208 243.871C700.418 246.885 694.817 250.202 692.493 251.151C689.16 252.511 686.434 252.07 683.027 251.814C681.544 251.704 681.558 251.248 680.343 251.983C675.838 254.705 678.955 264.39 680.417 267.924C687.566 285.217 711.993 279.393 726.08 277.623C721.598 273.107 714.256 268.126 713.886 261.033C713.775 258.921 714.299 255.147 717.011 254.971C719.179 254.831 721.781 258.106 723.131 259.397C727.133 263.222 732.312 269.567 738.1 270.116C745.838 270.85 751.791 258.318 755 252.853C751.056 252.112 746.735 252.156 744.442 248.286C741.717 243.687 741.669 236.642 741.717 231.464C741.758 227.056 743.163 222.233 737.269 222.016C731.84 221.817 725.761 223.497 720.279 223.877ZM200.707 235.184C199.58 237.643 194.681 238.607 192.53 239.265C184.349 241.763 176.361 244.937 168.385 248.05C152.283 254.335 136.357 261.277 121.653 270.513C118.905 272.241 120.252 268.909 120.965 267.708C122.565 265.015 125.927 263.109 128.438 261.46C135.233 256.994 142.43 253.857 149.943 250.87C164.977 244.894 180.24 238.558 195.658 233.717C197.447 233.155 202.222 231.88 200.707 235.184ZM387.456 247.361C384.467 247.67 380.967 246.991 378.092 247.966C374.346 249.237 374.964 251.809 373.855 254.971C371.975 260.338 369.962 265.661 368 271C375.263 270.661 382.219 264.912 388.375 261.603C391.859 259.73 403.974 253.512 400.321 247.82C398.008 244.217 390.775 247.017 387.456 247.361ZM470.118 238.004C465.62 237.922 460.675 239.284 456.123 239.51C450.02 239.813 444.01 240.974 437.914 241.255C433.904 241.44 429.967 242.264 426 242.804C429.947 251.948 437.651 259.946 447.332 263.258C454.969 265.871 465.657 266.315 470.875 259.085C473.877 254.925 478.781 238.16 470.118 238.004ZM704.309 200.233C699.405 203.491 695.474 208.159 691.378 212.324C681.116 222.755 670.497 233.923 666.055 248.222C665.445 250.18 670.072 251.911 671.324 251.987C673.97 252.147 674.508 250.812 675.548 248.577C678.119 243.041 679.104 236.856 683.217 232.136C688.23 226.381 694.265 220.77 700.083 215.826C704.037 212.466 713.726 207.736 714.863 202.181C716.207 195.615 707.279 198.261 704.309 200.233ZM577.804 238.229C575.031 239.036 574.81 241.602 574.177 244.367C571.627 255.475 597.41 243.355 601 241.539C599.806 237.973 588.056 238.623 585.334 238.483C583.215 238.375 579.853 237.633 577.804 238.229ZM730.102 243.999C726.281 244.146 728.043 228.542 732.386 230.111C736.111 231.458 732.551 243.903 730.102 243.999ZM193 226.057C187.15 231.106 177.965 231.783 170.692 233.404C159.974 235.792 149.349 238.836 138.718 241.583C132.005 243.317 135.784 239.181 139.146 237.628C144.925 234.955 151.468 233.531 157.645 232.061C164.332 230.469 171.166 229.406 177.815 227.67C182.419 226.467 188.357 223.39 193 226.057ZM374.999 117.535C381.5 118.728 387.99 120.808 393.689 124.213C398.407 127.033 398.22 131.419 392.239 128.874C364.338 116.999 329.718 124.192 302.473 134.707C299.467 135.867 299.691 133.337 300.6 131.387C301.85 128.7 304.524 127.141 307.09 125.893C314.801 122.144 323.69 120.023 332.074 118.466C346.047 115.87 360.96 114.958 374.999 117.535ZM379.076 100.478C382.621 101.439 386.694 103.824 388.862 106.85C391.4 110.39 389.382 112.2 385.861 110.118C381.931 107.794 378.337 105.477 373.827 104.249C371.445 103.602 371.542 102.109 373.252 100.798C374.853 99.5706 377.338 100.006 379.076 100.478Z" fill="#1F2937"/>
</svg>
